<svg id="Layer_1" data-name="Layer 1" xmlns="http://www.w3.org/2000/svg" viewBox="0 0 1080 1080"><defs><style>.cls-1{fill:#1c1e13;}</style></defs><title>BNDLSS__logotype</title><path class="cls-1" d="M62.15,619.46H34.7V458.55H64.64v53.13A53.25,53.25,0,0,1,102.56,496c33.43,0,59.87,26.19,59.87,62.87,0,36.42-26.44,62.61-59.87,62.61a53,53,0,0,1-38.17-16Zm37.17-26.7c18.71,0,33.92-13.22,33.92-33.92,0-21-15.21-34.18-33.92-34.18-19.21,0-34.68,13.22-34.68,34.18C64.64,579.54,80.11,592.76,99.32,592.76Z"/><path class="cls-1" d="M230.79,496c34.43,0,62.87,26.19,62.87,62.87,0,36.42-28.44,62.61-62.87,62.61-34.93,0-63.12-26.19-63.12-62.61C167.67,522.16,195.86,496,230.79,496Zm0,96.29c18,0,32.93-13,32.93-33.67,0-20.46-15-33.43-32.93-33.43-18.46,0-33.43,13-33.43,33.43C197.36,579.29,212.33,592.26,230.79,592.26Z"/><path class="cls-1" d="M298.89,497.22h29.69v65.86c0,20.7,9,29.68,25.44,29.68,21.21,0,33.43-18.21,33.43-18.21V497.22h29.94V619.46h-26.2L388,603.24c-10.23,11.73-23.7,18.21-40.16,18.21-28.44,0-48.9-21.7-48.9-51.14Z"/><path class="cls-1" d="M542.12,619.46H512.43V554.59c0-21-9-29.93-25.44-29.93-21.21,0-33.43,17.46-33.43,17.46v77.34H423.62V497.22h27.44l2.5,16.21C463.54,502,477,496,493.22,496c28.44,0,48.9,21.7,48.9,51.14Z"/><path class="cls-1" d="M645.15,458.55h29.93V619.46H647.64l-2.24-14a53,53,0,0,1-38.17,16c-33.43,0-59.88-26.19-59.88-62.61,0-36.68,26.45-62.87,59.88-62.87a53.25,53.25,0,0,1,37.92,15.71Zm-34.68,66.11c-18.71,0-33.93,13.22-33.93,34.18,0,20.7,15.22,33.92,33.93,33.92,19.21,0,34.68-13.22,34.68-33.92C645.15,537.88,629.68,524.66,610.47,524.66Z"/><path class="cls-1" d="M681.32,458.55h29.93V619.46H681.32Z"/><path class="cls-1" d="M840.48,575.55c-4.24,27.44-32.18,45.9-61.12,45.9-34.93,0-63.12-26.19-63.12-62.61,0-36.68,28.19-62.87,63.12-62.87,36.42,0,61.12,22.7,62.12,58.62v11.48h-94.8c3,16.22,16.46,26.19,32.68,26.19,12.47,0,23.95-6,29.19-16.71ZM807.3,542.37c-5-10.73-15.22-17.21-27.94-17.21-13,0-24.2,6.48-29.69,17.21Z"/><path class="cls-1" d="M944,585.53c0,21.7-17.46,35.92-46.15,35.92-30.19,0-50.4-20-51.15-44.9h29.94c1.25,10,10,15.71,21.71,15.71,9.23,0,15.71-3,15.71-8.48,0-13.47-65.61-3.49-65.61-49.64,0-21,18.71-38.17,47.4-38.17,27.69,0,46.15,18.21,46.9,45.15H912.58c-1.75-10.47-8-16-17.72-16-9.48,0-16.71,3.49-16.71,9.73C878.15,552.85,944,541.87,944,585.53Z"/><path class="cls-1" d="M1045.3,585.53c0,21.7-17.47,35.92-46.15,35.92-30.19,0-50.4-20-51.15-44.9h29.94c1.25,10,10,15.71,21.7,15.71,9.23,0,15.72-3,15.72-8.48,0-13.47-65.61-3.49-65.61-49.64,0-21,18.71-38.17,47.4-38.17,27.69,0,46.15,18.21,46.9,45.15h-30.19c-1.74-10.47-8-16-17.71-16-9.48,0-16.71,3.49-16.71,9.73C979.44,552.85,1045.3,541.87,1045.3,585.53Z"/></svg>