<svg id="Layer_1" data-name="Layer 1" xmlns="http://www.w3.org/2000/svg" viewBox="0 0 1080 1080"><defs><style>.cls-1{fill:#fff;}</style></defs><title>BNDLSS__white</title><polygon class="cls-1" points="123.02 561.63 123.02 518.38 123.05 518.36 123.02 518.34 46.42 462.81 46.42 506.11 93.19 540 46.42 573.89 46.42 617.18 123.02 561.66 123.05 561.64 123.02 561.63"/><polygon class="cls-1" points="199.63 561.63 199.63 518.38 199.66 518.36 199.63 518.34 123.05 462.81 123.05 506.11 169.81 540 123.05 573.89 123.05 617.18 199.63 561.66 199.66 561.64 199.63 561.63"/><path class="cls-1" d="M241.67,604H219.56V474.39h24.11v42.8a42.87,42.87,0,0,1,30.55-12.66c26.92,0,48.22,21.1,48.22,50.64,0,29.34-21.3,50.44-48.22,50.44a42.71,42.71,0,0,1-30.75-12.86Zm29.94-21.5c15.07,0,27.32-10.65,27.32-27.33,0-16.88-12.25-27.53-27.32-27.53-15.48,0-27.94,10.65-27.94,27.53C243.67,571.85,256.13,582.5,271.61,582.5Z"/><path class="cls-1" d="M377.5,504.53c27.73,0,50.64,21.1,50.64,50.64,0,29.34-22.91,50.44-50.64,50.44-28.13,0-50.84-21.1-50.84-50.44C326.66,525.63,349.37,504.53,377.5,504.53Zm0,77.57C392,582.1,404,571.65,404,555,404,538.49,392,528,377.5,528c-14.87,0-26.92,10.45-26.92,26.93C350.58,571.65,362.63,582.1,377.5,582.1Z"/><path class="cls-1" d="M432.36,505.54h23.91v53.05c0,16.68,7.23,23.91,20.5,23.91,17.08,0,26.92-14.67,26.92-14.67V505.54h24.12V604h-21.1l-2.61-13.06a41.41,41.41,0,0,1-32.36,14.67c-22.9,0-39.38-17.48-39.38-41.19Z"/><path class="cls-1" d="M628.28,604H604.36V551.76c0-16.88-7.23-24.12-20.49-24.12-17.08,0-26.93,14.07-26.93,14.07V604H532.83V505.54h22.1l2,13.06c8-9.24,18.89-14.07,31.95-14.07,22.91,0,39.39,17.49,39.39,41.2Z"/><path class="cls-1" d="M711.26,474.39h24.12V604H713.27l-1.81-11.25a42.7,42.7,0,0,1-30.74,12.86c-26.93,0-48.23-21.1-48.23-50.44,0-29.54,21.3-50.64,48.23-50.64a42.86,42.86,0,0,1,30.54,12.66Zm-27.93,53.25c-15.07,0-27.33,10.65-27.33,27.53,0,16.68,12.26,27.33,27.33,27.33,15.47,0,27.93-10.65,27.93-27.33C711.26,538.29,698.8,527.64,683.33,527.64Z"/><path class="cls-1" d="M740.4,474.39h24.11V604H740.4Z"/><path class="cls-1" d="M868.6,568.63c-3.42,22.11-25.92,37-49.23,37-28.13,0-50.84-21.1-50.84-50.44,0-29.54,22.71-50.64,50.84-50.64,29.34,0,49.23,18.29,50,47.23V561H793c2.42,13.06,13.27,21.1,26.33,21.1,10,0,19.29-4.82,23.51-13.47Zm-26.73-26.72c-4-8.64-12.25-13.87-22.5-13.87-10.45,0-19.49,5.23-23.91,13.87Z"/><path class="cls-1" d="M952,576.67c0,17.48-14.07,28.94-37.18,28.94-24.31,0-40.59-16.08-41.19-36.17h24.11c1,8,8,12.66,17.49,12.66,7.43,0,12.66-2.41,12.66-6.83,0-10.85-52.85-2.82-52.85-40,0-16.88,15.07-30.75,38.18-30.75,22.3,0,37.17,14.67,37.77,36.37H926.67c-1.41-8.44-6.43-12.86-14.27-12.86-7.63,0-13.46,2.82-13.46,7.84C898.94,550.35,952,541.51,952,576.67Z"/><path class="cls-1" d="M1033.57,576.67c0,17.48-14.06,28.94-37.17,28.94-24.32,0-40.59-16.08-41.19-36.17h24.11c1,8,8,12.66,17.48,12.66,7.44,0,12.66-2.41,12.66-6.83,0-10.85-52.85-2.82-52.85-40,0-16.88,15.07-30.75,38.18-30.75,22.31,0,37.18,14.67,37.78,36.37h-24.31c-1.41-8.44-6.43-12.86-14.27-12.86-7.64,0-13.46,2.82-13.46,7.84C980.53,550.35,1033.57,541.51,1033.57,576.67Z"/></svg>